<svg xmlns="http://www.w3.org/2000/svg" width="48" height="48" viewBox="0 0 48 48">
  <g id="icon_wellness_brandimmersion_48" transform="translate(-1249 -388)">
    <g id="Group_17081" data-name="Group 17081" transform="translate(313 -128)">
      <g id="mortar-pestle" transform="translate(948.25 528.234)">
        <line id="Line_176" data-name="Line 176" x2="22.5" transform="translate(0.75 11)" fill="none" stroke="#022741" stroke-linecap="round" stroke-linejoin="round" stroke-width="1.5"/>
        <path id="Path_8029" data-name="Path 8029" d="M21.75,11H2.25a9.741,9.741,0,0,0,5.266,8.654A.752.752,0,0,1,7.8,20.719a10.27,10.27,0,0,0-.648,1.223A.75.75,0,0,0,7.841,23h8.318a.751.751,0,0,0,.684-1.058,10.27,10.27,0,0,0-.648-1.223.753.753,0,0,1,.29-1.066A9.741,9.741,0,0,0,21.75,11Z" fill="none" stroke="#022741" stroke-linecap="round" stroke-linejoin="round" stroke-width="1.5"/>
        <path id="Path_8030" data-name="Path 8030" d="M14.25,8l3.957-6.595A1.316,1.316,0,0,1,19.752.834h0A1.316,1.316,0,0,1,20.584,2.5L18.75,8" fill="none" stroke="#022741" stroke-linecap="round" stroke-linejoin="round" stroke-width="1.5"/>
      </g>
    </g>
    <rect id="Rectangle_4904" data-name="Rectangle 4904" width="48" height="48" transform="translate(1249 388)" fill="none"/>
  </g>
</svg>
