<svg xmlns="http://www.w3.org/2000/svg" width="56" height="56" viewBox="0 0 56 56">
  <g id="Group_15468" data-name="Group 15468" transform="translate(-50 358)">
    <rect id="bed" width="56" height="56" transform="translate(50 -358)" fill="#fff"/>
    <g id="Group_15467" data-name="Group 15467" transform="translate(57 -339)">
      <rect id="Rectangle_2491" data-name="Rectangle 2491" width="1.157" height="5.598" transform="translate(0 22.543)" fill="#022741"/>
      <rect id="Rectangle_2492" data-name="Rectangle 2492" width="1.157" height="5.598" transform="translate(41.618 22.543)" fill="#022741"/>
      <path id="Path_2928" data-name="Path 2928" d="M144.69,498.463H103.072a.579.579,0,0,1-.578-.578v-4.2a2.772,2.772,0,0,1,2.768-2.769H142.5a2.772,2.772,0,0,1,2.769,2.769v4.2A.579.579,0,0,1,144.69,498.463Zm-41.039-1.156h40.461v-3.62a1.614,1.614,0,0,0-1.612-1.612H105.262a1.613,1.613,0,0,0-1.611,1.612Z" transform="translate(-102.494 -479.054)" fill="#022741"/>
      <path id="Path_2929" data-name="Path 2929" d="M143.532,483.976H109.216a.578.578,0,0,1-.578-.578v-9.674a2.771,2.771,0,0,1,2.768-2.768h29.935a2.772,2.772,0,0,1,2.769,2.768V483.4A.579.579,0,0,1,143.532,483.976Zm-33.737-1.157h33.159v-9.1a1.614,1.614,0,0,0-1.612-1.612H111.406a1.613,1.613,0,0,0-1.612,1.612Z" transform="translate(-104.987 -470.955)" fill="#022741"/>
      <path id="Path_2930" data-name="Path 2930" d="M126.182,487.788H114.746a.578.578,0,0,1-.578-.578v-5.121a1.739,1.739,0,0,1,1.738-1.737h9.117a1.739,1.739,0,0,1,1.738,1.737v5.121A.579.579,0,0,1,126.182,487.788Zm-10.858-1.157H125.6v-4.542a.582.582,0,0,0-.581-.581h-9.117a.582.582,0,0,0-.581.581Z" transform="translate(-107.23 -474.767)" fill="#022741"/>
      <path id="Path_2931" data-name="Path 2931" d="M153.62,487.788H142.184a.579.579,0,0,1-.578-.578v-5.121a1.739,1.739,0,0,1,1.738-1.737h9.117a1.739,1.739,0,0,1,1.738,1.737v5.121A.579.579,0,0,1,153.62,487.788Zm-10.858-1.157h10.279v-4.542a.582.582,0,0,0-.581-.581h-9.117a.582.582,0,0,0-.581.581Z" transform="translate(-118.362 -474.767)" fill="#022741"/>
      <path id="Path_2932" data-name="Path 2932" d="M144.69,506.536H103.072a.578.578,0,0,1-.578-.578v-3.712a.579.579,0,0,1,.578-.578H144.69a.579.579,0,0,1,.578.578v3.712A.578.578,0,0,1,144.69,506.536Zm-41.039-1.156h40.461v-2.555H103.651Z" transform="translate(-102.494 -483.415)" fill="#022741"/>
    </g>
  </g>
</svg>
