<svg xmlns="http://www.w3.org/2000/svg" width="56" height="56" viewBox="0 0 56 56">
  <g id="wedding_05" transform="translate(-1307 575)">
    <rect id="Rectangle_3939" data-name="Rectangle 3939" width="56" height="56" transform="translate(1307 -575)" fill="#fff"/>
    <g id="Group_52" data-name="Group 52" transform="translate(1312 -569)">
      <g id="engagement-move-in">
        <path id="Shape_308" data-name="Shape 308" d="M264.946,547.8a9.38,9.38,0,0,1-3.74,11.226,10.314,10.314,0,0,1-12.256-.742,9.321,9.321,0,0,1-2.24-11.59,10.132,10.132,0,0,1,11.162-4.914" transform="translate(-238.562 -522.317)" fill="none" stroke="#022741" stroke-linecap="round" stroke-linejoin="round" stroke-width="1.5"/>
        <path id="Shape_309" data-name="Shape 309" d="M252.922,554.986a9.375,9.375,0,0,1,3.34-11.68,10.323,10.323,0,0,1,12.592.754,9.325,9.325,0,0,1,1.8,11.988,10.2,10.2,0,0,1-11.858,4.14" transform="translate(-232.076 -522.316)" fill="none" stroke="#022741" stroke-linecap="round" stroke-linejoin="round" stroke-width="1.5"/>
        <path id="Shape_310" data-name="Shape 310" d="M257.7,544.589l-2.918-2.456a.935.935,0,0,1,0-1.446l2.16-1.812a1.019,1.019,0,0,1,.658-.238h4.2a1.019,1.019,0,0,1,.658.238l2.16,1.812a.935.935,0,0,1,0,1.446l-2.918,2.456" transform="translate(-229.705 -525.197)" fill="none" stroke="#022741" stroke-linecap="round" stroke-linejoin="round" stroke-width="1.5"/>
        <path id="Shape_311" data-name="Shape 311" d="M243.075,576.077V546.471a1.729,1.729,0,0,1,.784-1.438l19.174-12.8a1.9,1.9,0,0,1,2.084,0l19.174,12.8a1.729,1.729,0,0,1,.784,1.438v29.606" transform="translate(-241.075 -531.917)" fill="none" stroke="#022741" stroke-linecap="round" stroke-linejoin="round" stroke-width="1.5"/>
        <path id="Shape_312" data-name="Shape 312" d="M242.075,554h46" transform="translate(-242.075 -509.837)" fill="none" stroke="#022741" stroke-linecap="round" stroke-linejoin="round" stroke-width="1.5"/>
      </g>
    </g>
  </g>
</svg>
